<?xml version="1.0" encoding="utf-8"?>
<!-- Generator: Adobe Illustrator 23.0.2, SVG Export Plug-In . SVG Version: 6.00 Build 0)  -->
<svg version="1.1" id="Group_4" xmlns="http://www.w3.org/2000/svg" xmlns:xlink="http://www.w3.org/1999/xlink" x="0px" y="0px"
	 viewBox="0 0 50 50" style="enable-background:new 0 0 50 50;" xml:space="preserve">
<style type="text/css">
	.st0{fill:#EF7521;}
	.st1{clip-path:url(#SVGID_2_);}
	.st2{fill:#FEFEFE;}
</style>
<circle id="Oval" class="st0" cx="25" cy="25" r="25"/>
<g>
	<defs>
		<rect id="SVGID_1_" x="17" y="17" width="16" height="16"/>
	</defs>
	<clipPath id="SVGID_2_">
		<use xlink:href="#SVGID_1_"  style="overflow:visible;"/>
	</clipPath>
	<g id="Group_3-2" class="st1">
		<path id="Fill_1" class="st2" d="M23.7,18.3v10.5l-4.5-4.6c-0.5-0.5-1.3-0.5-1.8,0c0,0,0,0,0,0c-0.5,0.5-0.5,1.3,0,1.8l6.3,6.3
			c0.7,0.8,2,0.8,2.7,0c0,0,0,0,0,0l6.3-6.3c0.5-0.5,0.5-1.3,0-1.8c-0.5-0.5-1.3-0.5-1.8,0c0,0,0,0,0,0l-4.5,4.6V18.3
			c0-0.7-0.6-1.3-1.3-1.3S23.7,17.6,23.7,18.3"/>
	</g>
</g>
</svg>
