<svg xmlns="http://www.w3.org/2000/svg" width="39" height="38.87" viewBox="0 0 39 38.87">
  <path id="Subtraction_2" data-name="Subtraction 2" d="M-7066.048-12505.132h-22.63a3.038,3.038,0,0,1-1.186-.238,3.037,3.037,0,0,1-.968-.651,3.039,3.039,0,0,1-.653-.965,3.02,3.02,0,0,1-.239-1.183,3.02,3.02,0,0,1-.239,1.183,3.039,3.039,0,0,1-.653.965,3.032,3.032,0,0,1-.968.651,3.037,3.037,0,0,1-1.186.238h-4.183a3.039,3.039,0,0,1-1.186-.238,3.037,3.037,0,0,1-.968-.651,3.039,3.039,0,0,1-.653-.965,3.02,3.02,0,0,1-.239-1.183v-16.914a3.013,3.013,0,0,1,.239-1.183,3.033,3.033,0,0,1,.653-.966,3.019,3.019,0,0,1,.968-.65,3.023,3.023,0,0,1,1.186-.239h4.183a3.02,3.02,0,0,1,1.186.239,3.013,3.013,0,0,1,.968.65,3.033,3.033,0,0,1,.653.966,3.013,3.013,0,0,1,.239,1.183,3.01,3.01,0,0,1,.239-1.183,3.033,3.033,0,0,1,.653-.966,3.019,3.019,0,0,1,.968-.65,3.021,3.021,0,0,1,1.186-.239h0v-13.775a2.111,2.111,0,0,1,2.111-2.105h18.4a2.111,2.111,0,0,1,2.111,2.105v13.775h0a3.023,3.023,0,0,1,1.186.239,3.019,3.019,0,0,1,.968.65,3.033,3.033,0,0,1,.653.966,3.013,3.013,0,0,1,.239,1.183v16.914a3.02,3.02,0,0,1-.239,1.183,3.031,3.031,0,0,1-.653.965,3.037,3.037,0,0,1-.968.651A3.039,3.039,0,0,1-7066.048-12505.132Zm-5.979-8.077a1.137,1.137,0,0,0-.808.333,1.129,1.129,0,0,0-.335.806,1.127,1.127,0,0,0,.335.806,1.138,1.138,0,0,0,.808.334h1.523a1.139,1.139,0,0,0,.808-.334,1.129,1.129,0,0,0,.335-.806,1.131,1.131,0,0,0-.335-.806,1.138,1.138,0,0,0-.808-.333Zm-6.094,0a1.138,1.138,0,0,0-.808.333,1.131,1.131,0,0,0-.334.806,1.129,1.129,0,0,0,.334.806,1.139,1.139,0,0,0,.808.334h1.523a1.139,1.139,0,0,0,.808-.334,1.129,1.129,0,0,0,.335-.806,1.131,1.131,0,0,0-.335-.806,1.138,1.138,0,0,0-.808-.333Zm-6.094,0a1.138,1.138,0,0,0-.808.333,1.131,1.131,0,0,0-.334.806,1.129,1.129,0,0,0,.334.806,1.139,1.139,0,0,0,.808.334h1.523a1.141,1.141,0,0,0,.808-.334,1.131,1.131,0,0,0,.334-.806,1.133,1.133,0,0,0-.334-.806,1.14,1.14,0,0,0-.808-.333Zm12.188-4.557a1.138,1.138,0,0,0-.808.334,1.127,1.127,0,0,0-.335.806,1.127,1.127,0,0,0,.335.8,1.134,1.134,0,0,0,.808.334h1.523a1.135,1.135,0,0,0,.808-.334,1.129,1.129,0,0,0,.335-.8,1.129,1.129,0,0,0-.335-.806,1.139,1.139,0,0,0-.808-.334Zm-6.094,0a1.139,1.139,0,0,0-.808.334,1.129,1.129,0,0,0-.334.806,1.128,1.128,0,0,0,.334.8,1.135,1.135,0,0,0,.808.334h1.523a1.135,1.135,0,0,0,.808-.334,1.129,1.129,0,0,0,.335-.8,1.129,1.129,0,0,0-.335-.806,1.139,1.139,0,0,0-.808-.334Zm-6.094,0a1.139,1.139,0,0,0-.808.334,1.129,1.129,0,0,0-.334.806,1.128,1.128,0,0,0,.334.8,1.135,1.135,0,0,0,.808.334h1.523a1.137,1.137,0,0,0,.808-.334,1.13,1.13,0,0,0,.334-.8,1.131,1.131,0,0,0-.334-.806,1.141,1.141,0,0,0-.808-.334Zm12.188-4.557a1.138,1.138,0,0,0-.808.334,1.131,1.131,0,0,0-.335.806,1.129,1.129,0,0,0,.335.806,1.137,1.137,0,0,0,.808.333h1.523a1.138,1.138,0,0,0,.808-.333,1.131,1.131,0,0,0,.335-.806,1.133,1.133,0,0,0-.335-.806,1.139,1.139,0,0,0-.808-.334Zm-6.094,0a1.139,1.139,0,0,0-.808.334,1.132,1.132,0,0,0-.334.806,1.131,1.131,0,0,0,.334.806,1.138,1.138,0,0,0,.808.333h1.523a1.138,1.138,0,0,0,.808-.333,1.131,1.131,0,0,0,.335-.806,1.133,1.133,0,0,0-.335-.806,1.139,1.139,0,0,0-.808-.334Zm-6.094,0a1.139,1.139,0,0,0-.808.334,1.132,1.132,0,0,0-.334.806,1.131,1.131,0,0,0,.334.806,1.138,1.138,0,0,0,.808.333h1.523a1.14,1.14,0,0,0,.808-.333,1.133,1.133,0,0,0,.334-.806,1.134,1.134,0,0,0-.334-.806,1.141,1.141,0,0,0-.808-.334Zm.026-12.492a1.138,1.138,0,0,0-.808.334,1.127,1.127,0,0,0-.335.8,1.127,1.127,0,0,0,.335.806,1.134,1.134,0,0,0,.808.334h13.651a1.136,1.136,0,0,0,.808-.334,1.129,1.129,0,0,0,.334-.806,1.128,1.128,0,0,0-.334-.8,1.14,1.14,0,0,0-.808-.334Zm0-4.567a1.134,1.134,0,0,0-.808.334,1.127,1.127,0,0,0-.335.8,1.126,1.126,0,0,0,.335.806,1.134,1.134,0,0,0,.808.334h9.161a1.135,1.135,0,0,0,.808-.334,1.127,1.127,0,0,0,.334-.806,1.132,1.132,0,0,0-.334-.8,1.135,1.135,0,0,0-.808-.334Z" transform="translate(7102 12544.002)" fill="#ef7521"/>
</svg>
