<svg xmlns="http://www.w3.org/2000/svg" width="24.007" height="35.478" viewBox="0 0 24.007 35.478">
  <g id="smartphone" transform="translate(-4 0.001)">
    <path id="Subtraction_1" data-name="Subtraction 1" d="M19.5,35.478H4.5A4.474,4.474,0,0,1,0,31.043V4.434A4.473,4.473,0,0,1,4.5,0h15a4.473,4.473,0,0,1,4.5,4.434V31.043A4.474,4.474,0,0,1,19.5,35.478ZM4.5,2.957A1.491,1.491,0,0,0,3,4.434V31.043a1.492,1.492,0,0,0,1.5,1.479h15A1.491,1.491,0,0,0,21,31.043V4.434a1.491,1.491,0,0,0-1.5-1.477h-.749a1.491,1.491,0,0,0-1.5,1.477,1.492,1.492,0,0,1-1.5,1.479h-7.5a1.492,1.492,0,0,1-1.5-1.479,1.491,1.491,0,0,0-1.5-1.477Z" transform="translate(4.001 -0.001)" fill="#ef7521"/>
  </g>
</svg>
