<svg id="clock_2_" data-name="clock (2)" xmlns="http://www.w3.org/2000/svg" width="21.12" height="21.12" viewBox="0 0 21.12 21.12">
  <g id="Group_460" data-name="Group 460">
    <g id="Group_459" data-name="Group 459">
      <path id="Path_442" data-name="Path 442" d="M10.56,0A10.56,10.56,0,1,0,21.12,10.56,10.6,10.6,0,0,0,10.56,0Zm6.1,15.782L15.374,14.5a.621.621,0,0,0-.879.879l1.287,1.287a7.914,7.914,0,0,1-4.6,1.918V16.748a.619.619,0,1,0-1.238,0v1.831a7.914,7.914,0,0,1-4.6-1.918l1.287-1.287a.621.621,0,0,0-.879-.879L4.459,15.782a7.914,7.914,0,0,1-1.918-4.6H4.373a.619.619,0,0,0,0-1.238H2.541a7.914,7.914,0,0,1,1.918-4.6L5.746,6.625a.643.643,0,0,0,.879,0,.635.635,0,0,0,0-.879L5.338,4.459a7.914,7.914,0,0,1,4.6-1.918V4.373a.619.619,0,0,0,1.238,0V2.541a7.914,7.914,0,0,1,4.6,1.918L14.5,5.746a.635.635,0,0,0,0,.879.642.642,0,0,0,.879,0l1.287-1.287a7.914,7.914,0,0,1,1.918,4.6H16.748a.619.619,0,0,0,0,1.238h1.831A7.913,7.913,0,0,1,16.661,15.782ZM11.179,10.3V6.848a.619.619,0,1,0-1.238,0V10.56a.626.626,0,0,0,.182.438L12.6,13.473a.619.619,0,1,0,.875-.875Z" fill="#ef7521"/>
    </g>
  </g>
</svg>
