<svg id="calendar" xmlns="http://www.w3.org/2000/svg" width="21.12" height="21.12" viewBox="0 0 21.12 21.12">
  <path id="Path_443" data-name="Path 443" d="M18.4,1.65H16.5V.66a.66.66,0,1,0-1.32,0v.99H5.94V.66a.66.66,0,0,0-1.32,0v.99h-1.9A2.726,2.726,0,0,0,0,4.373V18.4A2.726,2.726,0,0,0,2.723,21.12H18.4A2.726,2.726,0,0,0,21.12,18.4V4.373A2.726,2.726,0,0,0,18.4,1.65ZM19.8,18.4a1.4,1.4,0,0,1-1.4,1.4H2.723a1.4,1.4,0,0,1-1.4-1.4V7.466a.206.206,0,0,1,.206-.206H19.594a.206.206,0,0,1,.206.206Z" fill="#ef7521"/>
</svg>
