<svg xmlns="http://www.w3.org/2000/svg" width="14.007" height="20.478" viewBox="0 0 14.007 20.478">
  <g id="smartphone" transform="translate(-4 0.001)">
    <path id="Subtraction_1" data-name="Subtraction 1" d="M11.379,20.478H2.626A2.6,2.6,0,0,1,0,17.918V2.559A2.6,2.6,0,0,1,2.626,0h8.753a2.6,2.6,0,0,1,2.627,2.559V17.918A2.6,2.6,0,0,1,11.379,20.478ZM2.626,1.707a.866.866,0,0,0-.876.852V17.918a.866.866,0,0,0,.876.854h8.753a.865.865,0,0,0,.875-.854V2.559a.865.865,0,0,0-.875-.852h-.437a.865.865,0,0,0-.875.852.866.866,0,0,1-.876.853H4.814a.866.866,0,0,1-.876-.853.865.865,0,0,0-.875-.852Z" transform="translate(4.001 -0.001)" fill="#ef7521"/>
  </g>
</svg>
