<svg id="clock_2_" data-name="clock (2)" xmlns="http://www.w3.org/2000/svg" width="38.999" height="38.999" viewBox="0 0 38.999 38.999">
  <g id="Group_460" data-name="Group 460">
    <g id="Group_459" data-name="Group 459">
      <path id="Path_442" data-name="Path 442" d="M19.5,0A19.5,19.5,0,1,0,39,19.5,19.567,19.567,0,0,0,19.5,0ZM30.765,29.143l-2.377-2.376a1.147,1.147,0,1,0-1.622,1.622l2.376,2.376a14.613,14.613,0,0,1-8.5,3.542V30.925a1.143,1.143,0,1,0-2.285,0v3.382a14.613,14.613,0,0,1-8.5-3.542l2.377-2.376a1.147,1.147,0,0,0-1.622-1.622L8.234,29.143a14.613,14.613,0,0,1-3.542-8.5H8.074a1.143,1.143,0,0,0,0-2.285H4.692a14.613,14.613,0,0,1,3.542-8.5l2.376,2.377a1.187,1.187,0,0,0,1.622,0,1.173,1.173,0,0,0,0-1.622L9.856,8.234a14.613,14.613,0,0,1,8.5-3.542V8.074a1.143,1.143,0,0,0,2.285,0V4.692a14.613,14.613,0,0,1,8.5,3.542L26.766,10.61a1.173,1.173,0,0,0,0,1.622,1.186,1.186,0,0,0,1.622,0l2.376-2.377a14.613,14.613,0,0,1,3.542,8.5H30.925a1.143,1.143,0,1,0,0,2.285h3.382A14.613,14.613,0,0,1,30.765,29.143ZM20.642,19.026V12.644a1.143,1.143,0,0,0-2.285,0V19.5a1.157,1.157,0,0,0,.336.809l4.569,4.569a1.142,1.142,0,0,0,1.616-1.616Z" fill="#ef7521"/>
    </g>
  </g>
</svg>
