<svg id="Group_16" data-name="Group 16" xmlns="http://www.w3.org/2000/svg" xmlns:xlink="http://www.w3.org/1999/xlink" width="52.724" height="52.892" viewBox="0 0 52.724 52.892">
  <defs>
    <clipPath id="clip-path">
      <path id="Clip_2" data-name="Clip 2" d="M0,0H30.747V35.6H0Z" fill="none"/>
    </clipPath>
    <clipPath id="clip-path-2">
      <path id="Clip_7" data-name="Clip 7" d="M0,.246H10.571V.459H0Z" transform="translate(0 -0.246)" fill="none"/>
    </clipPath>
    <clipPath id="clip-path-3">
      <path id="Clip_12" data-name="Clip 12" d="M0,0H18.055V19.238H0Z" fill="none"/>
    </clipPath>
  </defs>
  <g id="Group_3" data-name="Group 3" transform="translate(10.89)">
    <path id="Clip_2-2" data-name="Clip 2" d="M0,0H30.747V35.6H0Z" transform="translate(0)" fill="none"/>
    <g id="Group_3-2" data-name="Group 3" transform="translate(0)" clip-path="url(#clip-path)">
      <path id="Fill_1" data-name="Fill 1" d="M26.476,26.807a.562.562,0,0,1,.491-.45,3.141,3.141,0,0,0,2.622-2.269c.417-1.421.784-2.862,1.061-4.317a3.4,3.4,0,0,0-1.675-3.939.61.61,0,0,1-.171-.494c.086-.854.185-1.708.318-2.556.677-4.323-2.568-7.551-5.369-8.746a1.03,1.03,0,0,0-1.447.532A1.092,1.092,0,0,0,22.92,6a10.368,10.368,0,0,1,1.444.853A5.892,5.892,0,0,1,26.97,12.81c-.2,1.187-.322,2.389-.442,3.587a.988.988,0,0,0,.873,1.176c1,.247,1.359.665,1.171,1.648-.265,1.39-.606,2.769-.973,4.137a1.208,1.208,0,0,1-1.491.905,1.1,1.1,0,0,0-1.389.913,17.556,17.556,0,0,1-.885,2.515A11.083,11.083,0,0,1,17.635,33a5.574,5.574,0,0,1-3.873.164,13.689,13.689,0,0,1-2.23-.923A10.014,10.014,0,0,1,6.7,27.275c-.291-.716-.485-1.472-.725-2.209a1.074,1.074,0,0,0-1.171-.84c-1.061.123-1.49-.111-1.759-1.118q-.5-1.886-.878-3.805c-.2-1.046.125-1.477,1.177-1.733A1.041,1.041,0,0,0,4.2,16.29c-.125-1-.246-2-.393-3a8.825,8.825,0,0,1,4.4-9.466,12.4,12.4,0,0,1,6.528-1.667c2.438-.033,4.878,0,7.317-.005.379,0,.76.006,1.136-.031a1.041,1.041,0,0,0,1.04-1.1A1.09,1.09,0,0,0,23.054.015H18.309V0c-.956,0-1.912-.009-2.867,0A17.394,17.394,0,0,0,7.865,1.557,11.118,11.118,0,0,0,1.6,12.689c.091.871.213,1.737.321,2.605a.522.522,0,0,1-.265.612A3.19,3.19,0,0,0,.013,19.1,18.743,18.743,0,0,0,1.15,24.16a3.257,3.257,0,0,0,2.584,2.192.636.636,0,0,1,.537.473,16.751,16.751,0,0,0,1.073,2.493,13.324,13.324,0,0,0,7.688,5.861,6.766,6.766,0,0,0,3.9.229c4.635-1.232,7.983-3.934,9.549-8.6" transform="translate(0 0)" fill="#fefefe"/>
    </g>
  </g>
  <path id="Fill_4" data-name="Fill 4" d="M23.94,17.547Q20.385,9.161,16.829.776A1.071,1.071,0,0,0,14.963.4q-1.142,1.162-2.249,2.357A11.123,11.123,0,0,1,9.307,5.38,44.651,44.651,0,0,0,4.383,8.1a8.339,8.339,0,0,0-3.356,3.683A16.053,16.053,0,0,0,0,18.238a1.053,1.053,0,0,0,1.1,1.045,1.091,1.091,0,0,0,1.024-1.124c.053-.923.073-1.851.2-2.764A6.349,6.349,0,0,1,3.7,11.553c.437-.448.881-.892,1.352-1.3a20.408,20.408,0,0,1,4.118-2.43c.563-.3,1.134-.578,1.832-.933v.735q0,4.957,0,9.915c0,.264-.01.53.013.793a1.011,1.011,0,0,0,.93.935,1.046,1.046,0,0,0,1.112-.72,2.424,2.424,0,0,0,.051-.638c0-3.619.047-7.239-.027-10.857a3.054,3.054,0,0,1,1.144-2.793,12.894,12.894,0,0,0,1.235-1.229c.066.15.092.209.117.268q3.2,7.542,6.4,15.084c.3.71.53,1.045,1.512.628a.815.815,0,0,0,.58-1.09,2.18,2.18,0,0,0-.131-.372" transform="translate(0 33.604)" fill="#fefefe"/>
  <g id="Group_8" data-name="Group 8" transform="translate(28.797 52.679)">
    <path id="Clip_7-2" data-name="Clip 7" d="M0,.246H10.571V.459H0Z" transform="translate(0 -0.246)" fill="none"/>
    <g id="Group_8-2" data-name="Group 8" transform="translate(0 0)" clip-path="url(#clip-path-2)">
      <path id="Fill_6" data-name="Fill 6" d="M0,.494C1.745.5,3.49.5,5.236.5c1.779,0,3.557.006,5.335,0C8.793.5,7.014.5,5.236.5,3.49.5,1.745.5,0,.494" transform="translate(0 -0.287)" fill="#fefefe"/>
    </g>
  </g>
  <path id="Fill_9" data-name="Fill 9" d="M3.438,13.174c-.814,0-1.487,0-2.117,0C.378,13.164.01,12.789.008,11.833,0,9.248,0,6.54,0,3.556c0-.982.365-1.347,1.343-1.349l.676,0,1.214,0c.687,0,1.248,0,1.766.012h.032A.521.521,0,0,0,5.441,2.1a.47.47,0,0,0,.072-.379,3.544,3.544,0,0,1,0-.693A1.148,1.148,0,0,1,5.857.29,1.037,1.037,0,0,1,6.578,0h.007a1.1,1.1,0,0,1,1.06,1.041c0,.045,0,.092.005.136,0,.021,0,.041,0,.062.021.968.021.968,1.011.968h1.809c.544,0,.989,0,1.4,0,.863,0,1.249.383,1.25,1.23,0,3.063.005,5.836,0,8.475a1.3,1.3,0,0,1-.3.946,1.26,1.26,0,0,1-.935.308c-.662,0-1.38.005-2.261.005H3.438Zm5.245-2.145c.716,0,1.294,0,1.819.009h.024a.409.409,0,0,0,.5-.5c-.017-1.66-.017-3.485,0-5.744a.489.489,0,0,0-.1-.364.445.445,0,0,0-.331-.1H10.57c-.3.005-.6.006-.857.006H9.238c-.372,0-.806,0-1.235.016a.552.552,0,0,0-.394.3,1.068,1.068,0,0,1-1.034.772H6.557a.983.983,0,0,1-1-.774.376.376,0,0,0-.436-.317H5.1c-.489.007-.894.01-1.274.01-.448,0-.855,0-1.244-.014H2.551a.432.432,0,0,0-.321.1.5.5,0,0,0-.1.369c.015,2.255.014,4.08,0,5.744a.521.521,0,0,0,.1.387.515.515,0,0,0,.385.1h.032c.5-.007,1.053-.011,1.73-.011l1.083,0H5.47l1.083,0v0h2.13Z" transform="translate(27.476 39.717)" fill="#fefefe"/>
  <g id="Group_13" data-name="Group 13" transform="translate(34.669 33.651)">
    <path id="Clip_12-2" data-name="Clip 12" d="M0,0H18.055V19.238H0Z" transform="translate(0 0)" fill="none"/>
    <g id="Group_13-2" data-name="Group 13" transform="translate(0 0)" clip-path="url(#clip-path-3)">
      <path id="Fill_11" data-name="Fill 11" d="M18.047,17.771c-.2-1.585-.314-3.186-.635-4.746a5.892,5.892,0,0,0-1.1-2.4A11.684,11.684,0,0,0,13.7,8.106,49.9,49.9,0,0,0,8.663,5.3,9.873,9.873,0,0,1,5.127,2.619,18.992,18.992,0,0,0,2.918.366C2.219-.275,1.456-.048,1.1.846Q.6,2.085.107,3.327a1.066,1.066,0,0,0,.5,1.463,1.053,1.053,0,0,0,1.449-.625c.159-.355.316-.712.515-1.161.563.619,1.049,1.173,1.559,1.7A7.164,7.164,0,0,0,5.519,6.021C6.8,6.768,8.134,7.413,9.458,8.077a16.092,16.092,0,0,1,4.318,2.832,5.044,5.044,0,0,1,1.669,3.006c.161,1.407.323,2.815.459,4.224a1.107,1.107,0,0,0,1.052,1.1,1.1,1.1,0,0,0,1.077-1.022,1.941,1.941,0,0,0,.015-.445" transform="translate(0 0)" fill="#fefefe"/>
    </g>
  </g>
  <path id="Fill_14" data-name="Fill 14" d="M4.117,2.133A2.135,2.135,0,0,1,2.135.82,2.656,2.656,0,0,0,1.892.391,1.05,1.05,0,0,0,.554.136,1.046,1.046,0,0,0,.056,1.4a4.465,4.465,0,0,0,4.01,2.952q3.458.049,6.916.095a2.7,2.7,0,0,1,.588.044A1.815,1.815,0,0,1,12.833,5.7a1.126,1.126,0,0,0,1.039.841A1.038,1.038,0,0,0,14.9,5.164a6.422,6.422,0,0,0-1.255-1.854,4.308,4.308,0,0,0-3.306-1.137c-2.075.015-4.149-.034-6.225-.039" transform="translate(19.961 6.627)" fill="#fefefe"/>
</svg>
