<svg xmlns="http://www.w3.org/2000/svg" width="18.923" height="17.611" viewBox="0 0 18.923 17.611">
  <g id="Group_8" data-name="Group 8" transform="translate(-16 -16.5)">
    <g id="download_01" transform="translate(16.5 -0.25)">
      <g id="Group_528" data-name="Group 528" transform="translate(0 17.25)">
        <path id="Path_1290" data-name="Path 1290" d="M17.41,228.226a.511.511,0,0,0-.514.514v4.671a2.3,2.3,0,0,1-2.3,2.3H3.328a2.3,2.3,0,0,1-2.3-2.3v-4.747a.514.514,0,1,0-1.027,0v4.747a3.332,3.332,0,0,0,3.328,3.328H14.595a3.332,3.332,0,0,0,3.328-3.328V228.74A.514.514,0,0,0,17.41,228.226Z" transform="translate(0 -220.128)" fill="#ef7521" stroke="#ef7521" stroke-width="1"/>
        <path id="Path_1291" data-name="Path 1291" d="M139.644,29.783a.517.517,0,0,0,.361.152.5.5,0,0,0,.361-.152l3.264-3.264a.514.514,0,0,0-.727-.727l-2.385,2.389V17.764a.514.514,0,0,0-1.027,0V28.182L137.1,25.793a.514.514,0,0,0-.727.727Z" transform="translate(-131.043 -17.25)" fill="#ef7521" stroke="#ef7521" stroke-width="1"/>
      </g>
    </g>
  </g>
</svg>
