<svg id="Group_27_Copy" data-name="Group 27 Copy" xmlns="http://www.w3.org/2000/svg" xmlns:xlink="http://www.w3.org/1999/xlink" width="172.272" height="28" viewBox="0 0 172.272 28">
  <defs>
    <clipPath id="clip-path">
      <path id="Clip_6" data-name="Clip 6" d="M0,0H10.08V10.649H0Z" transform="translate(0 0.394)" fill="none"/>
    </clipPath>
    <clipPath id="clip-path-2">
      <path id="Clip_9" data-name="Clip 9" d="M0,0H10.543V9.718H0Z" transform="translate(0.951 0.933)" fill="none"/>
    </clipPath>
    <clipPath id="clip-path-3">
      <path id="Clip_24" data-name="Clip 24" d="M0,28H172.272V0H0Z" fill="none"/>
    </clipPath>
  </defs>
  <path id="Fill_1" data-name="Fill 1" d="M6.1,9.517a1.615,1.615,0,0,1-2.3,0L.477,6.163a1.655,1.655,0,0,1,0-2.324L3.8.481a1.617,1.617,0,0,1,2.3,0L9.424,3.839a1.655,1.655,0,0,1,0,2.324Z" transform="translate(8.911 9)" fill="#ed7622"/>
  <path id="Fill_3" data-name="Fill 3" d="M8.424,1.584A4.851,4.851,0,0,0,4.752,0H3.22V3.121H4.594A1.9,1.9,0,0,1,6.085,3.8,2.333,2.333,0,0,1,6.7,5.412a2.2,2.2,0,0,1-.754,1.7,2.474,2.474,0,0,1-1.744.7H3.14L0,11H4.071a5.78,5.78,0,0,0,4.1-1.639A5.293,5.293,0,0,0,9.9,5.4,5.406,5.406,0,0,0,8.424,1.584" transform="translate(17.821 9)" fill="#ed7622"/>
  <g id="Group_7" data-name="Group 7" transform="translate(0 9)">
    <path id="Clip_6-2" data-name="Clip 6" d="M0,0H10.08V10.649H0Z" transform="translate(0 0.394)" fill="none"/>
    <g id="Group_7-2" data-name="Group 7" clip-path="url(#clip-path)">
      <path id="Fill_5" data-name="Fill 5" d="M3.885,6.972a2.209,2.209,0,0,1-.622-1.563A2.08,2.08,0,0,1,4.03,3.765a2.583,2.583,0,0,1,1.777-.683H6.88L10.08,0H5.934A6.021,6.021,0,0,0,1.767,1.587,5,5,0,0,0,0,5.425,5.091,5.091,0,0,0,1.5,9.114a5.06,5.06,0,0,0,3.737,1.535H6.8V7.626H5.4a1.973,1.973,0,0,1-1.517-.654" transform="translate(0 0.394)" fill="#ed7622"/>
    </g>
  </g>
  <g id="Group_10" data-name="Group 10" transform="translate(7.921)">
    <path id="Clip_9-2" data-name="Clip 9" d="M0,0H10.543V9.718H0Z" transform="translate(0.951 0.933)" fill="none"/>
    <g id="Group_10-2" data-name="Group 10" clip-path="url(#clip-path-2)">
      <path id="Fill_8" data-name="Fill 8" d="M2.991,5.209A1.879,1.879,0,0,1,3.64,3.746a2.211,2.211,0,0,1,1.547-.6,2.085,2.085,0,0,1,1.628.74A2.455,2.455,0,0,1,7.489,5.6V6.633l3.053,3.086v-4A5.726,5.726,0,0,0,8.971,1.7,5.011,5.011,0,0,0,5.171,0,5.109,5.109,0,0,0,1.519,1.452,4.809,4.809,0,0,0,0,5.054v1.5H2.991Z" transform="translate(0.951 0.933)" fill="#ed7622"/>
    </g>
  </g>
  <path id="Fill_11" data-name="Fill 11" d="M7.8,4.641a1.934,1.934,0,0,1-.669,1.505,2.286,2.286,0,0,1-1.6.618A2.157,2.157,0,0,1,3.851,6a2.518,2.518,0,0,1-.7-1.763V3.174L0,0V4.113A5.887,5.887,0,0,0,1.622,8.249,5.2,5.2,0,0,0,5.549,10,5.3,5.3,0,0,0,9.323,8.507,4.939,4.939,0,0,0,10.891,4.8V3.252H7.8Z" transform="translate(7.921 18)" fill="#ed7622"/>
  <path id="Fill_13" data-name="Fill 13" d="M0,26V0H7.192L11.9,19.786,16.537,0h7.225V26H19.2V5.032L14.4,26H9.424L4.558,5.032V26Z" transform="translate(36.632 1)" fill="#656569"/>
  <path id="Fill_15" data-name="Fill 15" d="M8.368,20a7.554,7.554,0,0,1-6.113-2.726A11.289,11.289,0,0,1,0,9.888,10.965,10.965,0,0,1,2.22,2.65,7.554,7.554,0,0,1,8.3,0a7.866,7.866,0,0,1,6.307,2.606c1.475,1.729,2.223,4.225,2.223,7.42,0,.369,0,.638-.009.8a4.71,4.71,0,0,1-.04.509H4.918a5.531,5.531,0,0,0,1.022,3.316,3.259,3.259,0,0,0,2.654,1.119,3.655,3.655,0,0,0,2.011-.507,3.406,3.406,0,0,0,1.242-1.574h4.739a8.044,8.044,0,0,1-2.9,4.634A8.5,8.5,0,0,1,8.368,20ZM8.4,4.179a3.127,3.127,0,0,0-2.442,1,4.777,4.777,0,0,0-1.039,2.87h7a4.437,4.437,0,0,0-.958-2.879A3.278,3.278,0,0,0,8.4,4.179Z" transform="translate(63.364 8)" fill="#656569"/>
  <path id="Fill_17" data-name="Fill 17" d="M0,20V.553H4.419V2.7A6.986,6.986,0,0,1,6.6.679,5.3,5.3,0,0,1,9.253,0,5.436,5.436,0,0,1,12.07.69a5.835,5.835,0,0,1,2.035,2.172A6.3,6.3,0,0,1,16.268.716,5.5,5.5,0,0,1,19.054,0a5.309,5.309,0,0,1,4.162,1.717,6.776,6.776,0,0,1,1.536,4.688V20h-4.6V7.478a3.233,3.233,0,0,0-.678-2.192,2.4,2.4,0,0,0-1.9-.779,2.633,2.633,0,0,0-2.162.993,4.207,4.207,0,0,0-.8,2.71V20H10.071V7.515A3.346,3.346,0,0,0,9.407,5.3a2.307,2.307,0,0,0-1.866-.788,2.608,2.608,0,0,0-2.155,1A4.311,4.311,0,0,0,4.6,8.248V20Z" transform="translate(82.175 7)" fill="#656569"/>
  <path id="Fill_19" data-name="Fill 19" d="M8.909,20a8.334,8.334,0,0,1-6.532-2.667A10.681,10.681,0,0,1,0,9.992,10.662,10.662,0,0,1,2.377,2.667,8.339,8.339,0,0,1,8.909,0a8.347,8.347,0,0,1,6.526,2.667,10.645,10.645,0,0,1,2.386,7.325,10.664,10.664,0,0,1-2.386,7.341A8.342,8.342,0,0,1,8.909,20Zm0-15.787A3.559,3.559,0,0,0,5.845,5.719,7.3,7.3,0,0,0,4.77,9.992a7.387,7.387,0,0,0,1.076,4.3A3.549,3.549,0,0,0,8.909,15.8a3.524,3.524,0,0,0,3.034-1.513,7.387,7.387,0,0,0,1.076-4.3,7.336,7.336,0,0,0-1.069-4.273A3.521,3.521,0,0,0,8.909,4.213Z" transform="translate(108.907 8)" fill="#656569"/>
  <path id="Fill_21" data-name="Fill 21" d="M0,20V.553H4.263V3.882A7.628,7.628,0,0,1,6.362.94,4.5,4.5,0,0,1,9.222,0C9.4,0,9.54,0,9.64.008a2.239,2.239,0,0,1,.243.028L9.9,5.314H8.369A3.506,3.506,0,0,0,5.543,6.422a4.953,4.953,0,0,0-.948,3.291V20Z" transform="translate(129.699 7)" fill="#656569"/>
  <path id="Clip_24-2" data-name="Clip 24" d="M0,28H172.272V0H0Z" fill="none"/>
  <g id="Mask_Group_1" data-name="Mask Group 1" clip-path="url(#clip-path-3)">
    <path id="Fill_23" data-name="Fill 23" d="M4.95,26H0V6.813H4.95V26Zm0-21.323H0V0H4.95V4.676Z" transform="translate(141.579 1)" fill="#656569"/>
    <path id="Fill_25" data-name="Fill 25" d="M5.454,20a5.23,5.23,0,0,1-4.037-1.544A6.3,6.3,0,0,1,0,14.061a5.428,5.428,0,0,1,1.417-4.034A8.55,8.55,0,0,1,6.1,8.122c.525-.085,1.183-.178,1.957-.275,2.036-.274,3.068-.892,3.068-1.836a1.868,1.868,0,0,0-.682-1.623A4,4,0,0,0,8.174,3.9a3.6,3.6,0,0,0-2.236.6,2.047,2.047,0,0,0-.781,1.714v.277H.646V6.148A5.584,5.584,0,0,1,2.6,1.641,8.2,8.2,0,0,1,8.01,0,10.4,10.4,0,0,1,13.8,1.358a4.443,4.443,0,0,1,2.014,3.913V15.88a4.989,4.989,0,0,0,.231,1.743,1.674,1.674,0,0,0,.781.866v.841H11.806a4.438,4.438,0,0,1-.382-1.063,6.6,6.6,0,0,1-.15-1.255,6.073,6.073,0,0,1-2.386,2.225A7.423,7.423,0,0,1,5.454,20Zm5.737-9.853a12.567,12.567,0,0,1-2.71.911l-.061.014c-.993.223-1.491.335-1.522.346a3.865,3.865,0,0,0-1.784.944,2.275,2.275,0,0,0-.5,1.562,2.151,2.151,0,0,0,.646,1.64A2.452,2.452,0,0,0,7,16.172a4.13,4.13,0,0,0,3.076-1.141,4.284,4.284,0,0,0,1.116-3.116V10.147Z" transform="translate(148.51 8)" fill="#656569"/>
    <path id="Fill_26" data-name="Fill 26" d="M0,26H4.95V0H0Z" transform="translate(167.321 1)" fill="#656569"/>
  </g>
</svg>
