<?xml version="1.0" encoding="utf-8"?>
<!-- Generator: Adobe Illustrator 23.0.2, SVG Export Plug-In . SVG Version: 6.00 Build 0)  -->
<svg version="1.1" id="Layer_1" xmlns="http://www.w3.org/2000/svg" xmlns:xlink="http://www.w3.org/1999/xlink" x="0px" y="0px"
	 viewBox="0 0 28.8 27.5" style="enable-background:new 0 0 28.8 27.5;" xml:space="preserve">
<style type="text/css">
	.st0{fill:none;}
	.st1{fill:#EF7521;}
	.st2{clip-path:url(#SVGID_2_);}
</style>
<g id="Star_Copy_4" transform="translate(-2.099 -1.411)">
	<path class="st0" d="M18,25.2c-0.9-0.5-2-0.5-3,0l-6.3,3.6c-0.5,0.3-1.1,0.1-1.4-0.4c-0.1-0.2-0.2-0.5-0.1-0.7l1.4-7.1
		c0.2-1-0.1-2.1-0.9-2.8l-5.3-4.9c-0.4-0.4-0.4-1-0.1-1.4c0.2-0.2,0.4-0.3,0.6-0.3l7.2-0.8c1-0.1,2-0.8,2.4-1.7l3-6.6
		c0.2-0.5,0.8-0.7,1.3-0.5c0.2,0.1,0.4,0.3,0.5,0.5l3,6.6c0.4,1,1.3,1.6,2.4,1.7l7.2,0.8c0.5,0.1,0.9,0.6,0.9,1.1
		c0,0.2-0.1,0.5-0.3,0.6l-5.3,4.9c-0.8,0.7-1.1,1.8-0.9,2.8l1.4,7.1c0.1,0.5-0.2,1.1-0.8,1.2c-0.2,0-0.5,0-0.7-0.1L18,25.2z"/>
	<path class="st1" d="M24.8,28.9c-0.2,0-0.3,0-0.5-0.1L18,25.2c-0.5-0.3-1-0.4-1.5-0.4s-1,0.1-1.5,0.4l-6.3,3.6
		c-0.2,0.1-0.3,0.1-0.5,0.1c-0.6,0-1.1-0.5-1-1.2l1.4-7.1c0.2-1-0.1-2.1-0.9-2.8l-5.3-4.9c-0.6-0.6-0.3-1.6,0.6-1.7l7.2-0.8
		c1-0.1,2-0.8,2.4-1.7l3-6.6c0.2-0.4,0.5-0.6,0.9-0.6s0.7,0.2,0.9,0.6l3,6.6c0.4,1,1.3,1.6,2.4,1.7l7.2,0.8c0.9,0.1,1.2,1.2,0.6,1.7
		l-5.3,4.9c-0.8,0.7-1.1,1.8-0.9,2.8l1.4,7.1C25.9,28.4,25.4,28.9,24.8,28.9z M23.4,25.9l-1-5c-0.3-1.7,0.2-3.5,1.5-4.7l3.7-3.4
		l-5-0.6c-1.7-0.2-3.3-1.3-4-2.9l-2.1-4.6l-2.1,4.6c-0.7,1.6-2.2,2.7-4,2.9l-5,0.6l3.7,3.4c1.3,1.2,1.9,3,1.5,4.7l-1,5l4.4-2.5
		c0.7-0.4,4.2-0.4,4.9,0L23.4,25.9"/>
</g>
<g>
	<defs>
		<path id="SVGID_1_" d="M16.3,23.8c-0.9-0.5-2-0.5-3,0L7,27.4c-0.5,0.3-1.1,0.1-1.4-0.4c-0.1-0.2-0.2-0.5-0.1-0.7L7,19.2
			c0.2-1-0.1-2.1-0.9-2.8l-5.3-4.9c-0.4-0.4-0.4-1-0.1-1.4c0.2-0.2,0.4-0.3,0.6-0.3l7.2-0.8c1-0.1,2-0.8,2.4-1.7l3-6.6
			c0.2-0.5,0.8-0.7,1.3-0.5c0.2,0.1,0.4,0.3,0.5,0.5l3,6.6c0.4,1,1.3,1.6,2.4,1.7l7.2,0.8c0.5,0.1,0.9,0.6,0.9,1.1
			c0,0.2-0.1,0.5-0.3,0.6l-5.3,4.9c-0.8,0.7-1.1,1.8-0.9,2.8l1.4,7.1c0.1,0.5-0.2,1.1-0.8,1.2c-0.2,0-0.5,0-0.7-0.1L16.3,23.8z"/>
	</defs>
	<clipPath id="SVGID_2_">
		<use xlink:href="#SVGID_1_"  style="overflow:visible;"/>
	</clipPath>
	<g id="Rectangle-2_1_" class="st2">
		<rect id="Rectangle-3_1_" x="0.3" y="-8.4" class="st1" width="14" height="42"/>
	</g>
</g>
</svg>
