<svg id="Group_10" data-name="Group 10" xmlns="http://www.w3.org/2000/svg" xmlns:xlink="http://www.w3.org/1999/xlink" width="34.761" height="55.002" viewBox="0 0 34.761 55.002">
  <defs>
    <clipPath id="clip-path">
      <path id="Clip_5" data-name="Clip 5" d="M0,0H34.761V49.5H0Z" fill="none"/>
    </clipPath>
  </defs>
  <path id="Fill_1" data-name="Fill 1" d="M0,0H2.259V2.917H4.837V0H7.085V7.641H4.837V4.628H2.259V7.641H0Z" transform="translate(13.838 14.518)" fill="#fefefe"/>
  <g id="Group_9" data-name="Group 9">
    <path id="Fill_2" data-name="Fill 2" d="M16.8,1.946H1A.986.986,0,0,1,0,.974.986.986,0,0,1,1,0H16.8a.986.986,0,0,1,1,.974.986.986,0,0,1-1,.972" transform="translate(8.48 53.056)" fill="#fefefe"/>
    <g id="Group_6" data-name="Group 6">
      <path id="Clip_5-2" data-name="Clip 5" d="M0,0H34.761V49.5H0Z" fill="none"/>
      <g id="Group_6-2" data-name="Group 6" clip-path="url(#clip-path)">
        <path id="Fill_4" data-name="Fill 4" d="M17.38,49.5A4.814,4.814,0,0,1,13.063,46.9L1.893,25.07A17.133,17.133,0,0,1,2.45,8.414,16.971,16.971,0,0,1,16.278.031C16.644.01,17.017,0,17.386,0s.738.01,1.1.031A16.969,16.969,0,0,1,32.31,8.414a17.131,17.131,0,0,1,.558,16.656L21.7,46.9A4.817,4.817,0,0,1,17.38,49.5Zm0-46.9c-.316,0-.634.009-.945.027A14.326,14.326,0,0,0,4.765,9.72a14.6,14.6,0,0,0-.478,14.188l11.17,21.827a2.172,2.172,0,0,0,3.845,0L30.476,23.908A14.6,14.6,0,0,0,30,9.72a14.324,14.324,0,0,0-11.67-7.087C18.014,2.615,17.7,2.606,17.38,2.606Z" transform="translate(0 0)" fill="#fefefe"/>
      </g>
    </g>
    <path id="Fill_7" data-name="Fill 7" d="M9.36,18.237A9.252,9.252,0,0,1,0,9.119,9.252,9.252,0,0,1,9.36,0a9.252,9.252,0,0,1,9.359,9.119A9.251,9.251,0,0,1,9.36,18.237ZM9.36,2.6A6.609,6.609,0,0,0,2.674,9.119,6.608,6.608,0,0,0,9.36,15.632a6.608,6.608,0,0,0,6.685-6.513A6.609,6.609,0,0,0,9.36,2.6Z" transform="translate(8.021 9.22)" fill="#fefefe"/>
  </g>
</svg>
