<svg xmlns="http://www.w3.org/2000/svg" width="24.944" height="35.476" viewBox="0 0 24.944 35.476">
  <g id="location" transform="translate(-76)">
    <path id="Path_394" data-name="Path 394" d="M88.472,0A12.482,12.482,0,0,0,76,12.472a12.3,12.3,0,0,0,1.871,6.548l9.756,15.965a.985.985,0,0,0,.707.478,1.035,1.035,0,0,0,1.06-.5l9.784-16.111a12.3,12.3,0,0,0,1.767-6.382A12.482,12.482,0,0,0,88.472,0Zm0,18.708a6.236,6.236,0,1,1,6.236-6.236A6.228,6.228,0,0,1,88.472,18.708Z" fill="#ef7521"/>
  </g>
</svg>
