<svg id="Group_35_Copy" data-name="Group 35 Copy" xmlns="http://www.w3.org/2000/svg" xmlns:xlink="http://www.w3.org/1999/xlink" width="329" height="39" viewBox="0 0 329 39">
  <defs>
    <clipPath id="clip-path">
      <path id="Clip_6" data-name="Clip 6" d="M0,0H12.688V13.843H0Z" fill="none"/>
    </clipPath>
    <clipPath id="clip-path-2">
      <path id="Clip_11" data-name="Clip 11" d="M0,0H13.9V12.63H0Z" fill="none"/>
    </clipPath>
  </defs>
  <g id="Group_35" data-name="Group 35" transform="translate(0 1.95)">
    <g id="Group_13" data-name="Group 13">
      <path id="Fill_1" data-name="Fill 1" d="M8.423,12.952a2.251,2.251,0,0,1-3.178,0L.658,8.387a2.229,2.229,0,0,1,0-3.163L5.244.655a2.255,2.255,0,0,1,3.178,0l4.586,4.569a2.229,2.229,0,0,1,0,3.163Z" transform="translate(11.163 11.114)" fill="#ed7622"/>
      <path id="Fill_3" data-name="Fill 3" d="M10.79,1.993A6.266,6.266,0,0,0,6.087,0H4.124V3.927H5.885a2.449,2.449,0,0,1,1.909.852,2.906,2.906,0,0,1,.783,2.032,2.747,2.747,0,0,1-.965,2.137,3.2,3.2,0,0,1-2.234.885H4.022L0,13.843H5.215a7.475,7.475,0,0,0,5.248-2.063,6.608,6.608,0,0,0,2.219-4.99,6.738,6.738,0,0,0-1.892-4.8" transform="translate(23.308 10.999)" fill="#ed7622"/>
      <g id="Group_7" data-name="Group 7" transform="translate(0 10.998)">
        <path id="Clip_6-2" data-name="Clip 6" d="M0,0H12.688V13.843H0Z" transform="translate(0 0)" fill="none"/>
        <g id="Group_7-2" data-name="Group 7" transform="translate(0 0)" clip-path="url(#clip-path)">
          <path id="Fill_5" data-name="Fill 5" d="M4.89,9.064a2.923,2.923,0,0,1-.783-2.032,2.741,2.741,0,0,1,.965-2.137,3.193,3.193,0,0,1,2.236-.887H8.66L12.688,0H7.469A7.444,7.444,0,0,0,2.225,2.063,6.6,6.6,0,0,0,0,7.053a6.732,6.732,0,0,0,1.894,4.8,6.269,6.269,0,0,0,4.7,1.995h1.96V9.914H6.8a2.447,2.447,0,0,1-1.909-.85" transform="translate(0)" fill="#ed7622"/>
        </g>
      </g>
      <path id="Fill_8" data-name="Fill 8" d="M3.944,6.772a2.427,2.427,0,0,1,.856-1.9,2.939,2.939,0,0,1,2.041-.78,2.766,2.766,0,0,1,2.146.961,3.167,3.167,0,0,1,.889,2.225V8.623L13.9,12.634v-5.2A7.387,7.387,0,0,0,11.83,2.213,6.65,6.65,0,0,0,6.819,0,6.789,6.789,0,0,0,2,1.888,6.209,6.209,0,0,0,0,6.57V8.523H3.944Z" transform="translate(11.045 0)" fill="#ed7622"/>
      <g id="Group_12" data-name="Group 12" transform="translate(11.045 23.207)">
        <path id="Clip_11-2" data-name="Clip 11" d="M0,0H13.9V12.63H0Z" transform="translate(0 0)" fill="none"/>
        <g id="Group_12-2" data-name="Group 12" transform="translate(0 0)" clip-path="url(#clip-path-2)">
          <path id="Fill_10" data-name="Fill 10" d="M9.956,5.862a2.431,2.431,0,0,1-.854,1.9,2.936,2.936,0,0,1-2.041.78,2.766,2.766,0,0,1-2.146-.961,3.162,3.162,0,0,1-.891-2.227V4.009L0,0V5.195a7.393,7.393,0,0,0,2.07,5.224A6.674,6.674,0,0,0,7.083,12.63,6.808,6.808,0,0,0,11.9,10.745a6.206,6.206,0,0,0,2-4.68V4.107H9.956Z" fill="#ed7622"/>
        </g>
      </g>
    </g>
    <path id="Fill_14" data-name="Fill 14" d="M22,0,15.825,25.508,9.564,0H0V33.519H6.061V6.488l6.474,27.031h6.619L25.543,6.488V33.519h6.063V0Z" transform="translate(47.758 1.16)" fill="#656569"/>
    <g id="Group_23" data-name="Group 23" transform="translate(83.125 9.054)">
      <path id="Fill_15" data-name="Fill 15" d="M10.938,26.467a9.83,9.83,0,0,1-7.991-3.607C.991,20.463,0,17.174,0,13.087,0,9.055.977,5.831,2.9,3.506A9.819,9.819,0,0,1,10.85,0a10.218,10.218,0,0,1,8.241,3.45C21.02,5.736,22,9.039,22,13.268c0,.535-.007.87-.012,1.057a6.163,6.163,0,0,1-.053.674H6.428a7.4,7.4,0,0,0,1.334,4.389,4.235,4.235,0,0,0,3.469,1.479,4.728,4.728,0,0,0,2.628-.67,4.5,4.5,0,0,0,1.623-2.083h6.193a10.67,10.67,0,0,1-3.789,6.134A11.023,11.023,0,0,1,10.938,26.467ZM10.977,5.53A4.063,4.063,0,0,0,7.785,6.85a6.369,6.369,0,0,0-1.357,3.8H15.57a5.91,5.91,0,0,0-1.251-3.81A4.255,4.255,0,0,0,10.977,5.53Z" transform="translate(0 0.001)" fill="#656569"/>
      <path id="Fill_17" data-name="Fill 17" d="M0,25.44V.7H5.895V3.436A9.167,9.167,0,0,1,8.8.864,7.347,7.347,0,0,1,12.343,0,7.533,7.533,0,0,1,16.1.877a7.584,7.584,0,0,1,2.714,2.763A8.228,8.228,0,0,1,21.7.911,7.612,7.612,0,0,1,25.417,0a7.254,7.254,0,0,1,5.552,2.184,8.367,8.367,0,0,1,2.048,5.963V25.44h-6.13V9.512a3.986,3.986,0,0,0-.9-2.789,3.275,3.275,0,0,0-2.532-.991A3.584,3.584,0,0,0,20.566,7,5.181,5.181,0,0,0,19.5,10.444v15H13.434V9.559a4.122,4.122,0,0,0-.885-2.824,3.149,3.149,0,0,0-2.489-1A3.547,3.547,0,0,0,7.185,7.008,5.306,5.306,0,0,0,6.13,10.491V25.44Z" transform="translate(25.043 0.184)" fill="#656569"/>
      <path id="Fill_19" data-name="Fill 19" d="M11.766,26.467a11,11,0,0,1-8.627-3.529C1.056,20.6,0,17.331,0,13.222,0,9.13,1.056,5.869,3.139,3.529A11,11,0,0,1,11.766,0a11.016,11.016,0,0,1,8.619,3.529c2.09,2.343,3.15,5.6,3.15,9.693,0,4.105-1.06,7.374-3.15,9.716A11.012,11.012,0,0,1,11.766,26.467Zm0-20.892A4.7,4.7,0,0,0,7.72,7.568,9.68,9.68,0,0,0,6.3,13.222a9.8,9.8,0,0,0,1.421,5.69,4.686,4.686,0,0,0,4.047,2,4.651,4.651,0,0,0,4.006-2,9.8,9.8,0,0,0,1.419-5.69A9.723,9.723,0,0,0,15.78,7.568,4.642,4.642,0,0,0,11.766,5.576Z" transform="translate(61.054 0)" fill="#656569"/>
      <path id="Fill_21" data-name="Fill 21" d="M0,25.44V.7H5.765V4.937A9.753,9.753,0,0,1,8.6,1.2,6.344,6.344,0,0,1,12.473,0c.243,0,.431,0,.566.01a3.213,3.213,0,0,1,.329.035l.023,6.714H11.319A4.9,4.9,0,0,0,7.5,8.169a6.041,6.041,0,0,0-1.283,4.187V25.44Z" transform="translate(87.623 0.184)" fill="#656569"/>
    </g>
    <path id="Fill_24" data-name="Fill 24" d="M6.216,33.519H0V8.782H6.216V33.519Zm0-27.489H0V0H6.216V6.03Z" transform="translate(186.341 1.16)" fill="#656569"/>
    <path id="Fill_25" data-name="Fill 25" d="M7.025,26.511a6.632,6.632,0,0,1-5.2-2.048A8.508,8.508,0,0,1,0,18.638a7.318,7.318,0,0,1,1.826-5.347c1.215-1.226,3.245-2.075,6.035-2.525.685-.115,1.533-.237,2.52-.363,2.622-.364,3.952-1.183,3.952-2.434a2.511,2.511,0,0,0-.879-2.152,5.041,5.041,0,0,0-2.926-.649,4.538,4.538,0,0,0-2.88.8A2.745,2.745,0,0,0,6.641,8.236V8.6H.832V8.148a7.5,7.5,0,0,1,2.52-5.974A10.365,10.365,0,0,1,10.316,0c3.23,0,5.741.606,7.464,1.8a5.941,5.941,0,0,1,2.594,5.186V21.049a6.812,6.812,0,0,0,.3,2.311,2.183,2.183,0,0,0,1.006,1.146v1.116H15.207a5.97,5.97,0,0,1-.492-1.409,9.086,9.086,0,0,1-.194-1.664A7.92,7.92,0,0,1,11.449,25.5,9.336,9.336,0,0,1,7.025,26.511Zm7.388-13.062a15.781,15.781,0,0,1-3.49,1.207c-1.241.286-2,.461-2.039.477a4.914,4.914,0,0,0-2.3,1.253,3.062,3.062,0,0,0-.65,2.069,2.9,2.9,0,0,0,.832,2.173,3.1,3.1,0,0,0,2.244.807,5.227,5.227,0,0,0,3.962-1.513,5.769,5.769,0,0,0,1.438-4.13Z" transform="translate(195.764 9.055)" fill="#656569"/>
    <path id="Fill_27" data-name="Fill 27" d="M0,33.519H6.214V0H0Z" transform="translate(220.514 1.16)" fill="#656569"/>
    <path id="Fill_28" data-name="Fill 28" d="M11.36,0V7.73H2.393V0H0V18.467H2.393V9.809H11.36v8.658h2.422V0Z" transform="translate(238.439 16.585)" fill="#656569"/>
    <path id="Fill_29" data-name="Fill 29" d="M0,0V18.468H10.43v-2H2.4V9.809H9.606V7.835H2.4V2h7.624V0Z" transform="translate(256.733 16.585)" fill="#656569"/>
    <path id="Fill_30" data-name="Fill 30" d="M2.478,18.467H0L6.3,0H9.19l6.326,18.464-2.558,0-1.979-5.809H4.4L2.478,18.466ZM7.649,2.11h0c-.34,1.347-.629,2.378-.936,3.343L4.9,10.8h5.585L8.668,5.481c-.378-1.1-.639-2.112-.892-3.091L7.7,2.11Z" transform="translate(269.511 16.585)" fill="#656569"/>
    <path id="Fill_32" data-name="Fill 32" d="M0,0V18.467H10.318v-2H2.391V0Z" transform="translate(287.897 16.585)" fill="#656569"/>
    <path id="Fill_33" data-name="Fill 33" d="M0,0V2.028H5.64v16.44H8.062V2.028H13.73V0Z" transform="translate(297.133 16.585)" fill="#656569"/>
    <path id="Fill_34" data-name="Fill 34" d="M11.362,0V7.73H2.393V0H0V18.467H2.393V9.809h8.969v8.658h2.422V0Z" transform="translate(313.391 16.585)" fill="#656569"/>
  </g>
</svg>
