<svg id="Group_8" data-name="Group 8" xmlns="http://www.w3.org/2000/svg" width="50" height="50" viewBox="0 0 50 50">
  <circle id="Oval" cx="25" cy="25" r="25" fill="#ef7521"/>
  <path id="Fill_1" data-name="Fill 1" d="M15.2,19H3.8A3.8,3.8,0,0,1,0,15.2V3.8A3.8,3.8,0,0,1,3.8,0H7.6a.95.95,0,1,1,0,1.9H3.8A1.9,1.9,0,0,0,1.9,3.8V15.2a1.9,1.9,0,0,0,1.9,1.9H15.2a1.9,1.9,0,0,0,1.9-1.9V11.4a.95.95,0,0,1,1.9,0v3.8A3.8,3.8,0,0,1,15.2,19ZM10.45,9.5a.95.95,0,0,1-.672-1.622L15.757,1.9H12.35a.95.95,0,1,1,0-1.9h5.7A.951.951,0,0,1,19,.95v5.7a.95.95,0,1,1-1.9,0V3.243L11.122,9.221A.944.944,0,0,1,10.45,9.5Z" transform="translate(16 16)" fill="#fff"/>
</svg>
