<svg xmlns="http://www.w3.org/2000/svg" width="28.802" height="27.49" viewBox="0 0 28.802 27.49">
  <path id="Star_Copy_3" data-name="Star Copy 3" d="M17.977,25.2a3,3,0,0,0-2.954,0l-6.312,3.57A1,1,0,0,1,7.239,27.7l1.445-7.106a3,3,0,0,0-.913-2.809l-5.346-4.9a1,1,0,0,1,.562-1.731l7.205-.822a3,3,0,0,0,2.39-1.736L15.59,2a1,1,0,0,1,1.82,0l3.008,6.6a3,3,0,0,0,2.39,1.736l7.205.822a1,1,0,0,1,.562,1.731l-5.346,4.9a3,3,0,0,0-.913,2.809L25.761,27.7a1,1,0,0,1-1.472,1.07Z" transform="translate(-2.099 -1.411)" fill="#ef7521"/>
</svg>
