<svg xmlns="http://www.w3.org/2000/svg" xmlns:xlink="http://www.w3.org/1999/xlink" width="38.721" height="54.7" viewBox="0 0 38.721 54.7">
  <defs>
    <clipPath id="clip-path">
      <path id="Clip_2" data-name="Clip 2" d="M0,0H38.721V54.7H0Z" fill="none"/>
    </clipPath>
  </defs>
  <g id="Group_3" data-name="Group 3" clip-path="url(#clip-path)">
    <path id="Fill_1" data-name="Fill 1" d="M32.615,54.7a6.094,6.094,0,0,1-1.6-11.97l.256-.072V33.3a3.32,3.32,0,0,0-6.638,0v3.479a5.917,5.917,0,0,1-5.975,5.986h-.536a6.053,6.053,0,0,1-6.106-5.986V27.449l-.308-.039A13.481,13.481,0,0,1,0,14V3.492A1.308,1.308,0,0,1,1.357,2.175H6.08V1.389a1.386,1.386,0,1,1,2.773,0V5.3a1.386,1.386,0,1,1-2.773,0V4.952H2.772v9.06a10.7,10.7,0,1,0,21.406,0V4.952H20.869V5.3a1.386,1.386,0,1,1-2.772,0V1.389a1.386,1.386,0,1,1,2.772,0v.787h4.71a1.315,1.315,0,0,1,1.372,1.317v10.52A13.525,13.525,0,0,1,15.1,27.425l-.309.038v9.329A3.277,3.277,0,0,0,18.122,40h.536a3.172,3.172,0,0,0,3.2-3.209v-3.48A6.084,6.084,0,0,1,34.03,33.3v9.359l.254.073a6.235,6.235,0,0,1,4.437,5.87A6.11,6.11,0,0,1,32.615,54.7Zm0-9.4a3.325,3.325,0,1,0,3.319,3.325A3.326,3.326,0,0,0,32.615,45.3Z" fill="#fefefe"/>
  </g>
</svg>
